<svg
	width="100%"
	height="100%"
	viewBox="0 0 240 240"
	version="1.1"
	xmlns="http://www.w3.org/2000/svg"
	xmlns:xlink="http://www.w3.org/1999/xlink"
	xml:space="preserve"
	xmlns:serif="http://www.serif.com/"
	style="fill-rule:evenodd;clip-rule:evenodd;stroke-linecap:round;stroke-linejoin:round;stroke-miterlimit:1.5;"
>
	<title>LetsTalie logo</title>
	<rect
		x="0"
		y="-0"
		width="240"
		height="240"
		style="fill:#f7f6ee;stroke:#000;stroke-width:0.24px;"
	/>
	<path
		d="M85.989,134.4l-50,0l0,-16l17.8,0l0,-26.5l-17.8,1.2l0,-16l23,-5.2l15.8,0l0,46.5l11.2,0l0,16Zm11.7,-6.8c-1.867,-2.933 -3.167,-6.3 -3.9,-10.1c-0.733,-3.8 -1.1,-8.583 -1.1,-14.35c0,-5.767 0.367,-10.55 1.1,-14.35c0.733,-3.8 2.05,-7.15 3.95,-10.05c1.9,-2.9 4.633,-5.017 8.2,-6.35c3.567,-1.333 8.083,-2 13.55,-2c5.467,0 9.967,0.667 13.5,2c3.533,1.333 6.267,3.45 8.2,6.35c1.933,2.9 3.25,6.25 3.95,10.05c0.7,3.8 1.05,8.6 1.05,14.4c0,5.8 -0.35,10.583 -1.05,14.35c-0.7,3.767 -2.017,7.1 -3.95,10c-1.933,2.9 -4.667,5.017 -8.2,6.35c-3.533,1.333 -8.033,2 -13.5,2c-5.467,0 -9.983,-0.667 -13.55,-2c-3.567,-1.333 -6.317,-3.433 -8.25,-6.3Zm15.6,-35.8l0,28l4.2,0c3,0 5.1,-0.317 6.3,-0.95c1.2,-0.633 1.8,-2.083 1.8,-4.35l0,-28l-4.7,0c-2.933,0 -4.933,0.3 -6,0.9c-1.067,0.6 -1.6,2.067 -1.6,4.4Zm44.4,35.8c-1.867,-2.933 -3.167,-6.3 -3.9,-10.1c-0.733,-3.8 -1.1,-8.583 -1.1,-14.35c0,-5.767 0.367,-10.55 1.1,-14.35c0.733,-3.8 2.05,-7.15 3.95,-10.05c1.9,-2.9 4.633,-5.017 8.2,-6.35c3.567,-1.333 8.083,-2 13.55,-2c5.467,0 9.967,0.667 13.5,2c3.533,1.333 6.267,3.45 8.2,6.35c1.933,2.9 3.25,6.25 3.95,10.05c0.7,3.8 1.05,8.6 1.05,14.4c0,5.8 -0.35,10.583 -1.05,14.35c-0.7,3.767 -2.017,7.1 -3.95,10c-1.933,2.9 -4.667,5.017 -8.2,6.35c-3.533,1.333 -8.033,2 -13.5,2c-5.467,0 -9.983,-0.667 -13.55,-2c-3.567,-1.333 -6.317,-3.433 -8.25,-6.3Zm15.6,-35.8l0,28l4.2,0c3,0 5.1,-0.317 6.3,-0.95c1.2,-0.633 1.8,-2.083 1.8,-4.35l0,-28l-4.7,0c-2.933,0 -4.933,0.3 -6,0.9c-1.067,0.6 -1.6,2.067 -1.6,4.4Z"
		style="fill:#094832;"
	/>
	<g>
		<path
			d="M23.393,174.668l-1.169,-21.693l194.383,-10.476l1.169,21.693l-194.383,10.476Z"
			style="fill:#ffd300;"
		/>
		<path
			d="M131.046,152.145l21.724,0l0,102.255l-21.724,0l0,-102.255Z"
			style="fill:#ffd300;"
		/>
		<path
			d="M87.597,154.713l21.724,0l0,99.687l-21.724,0l0,-99.687Z"
			style="fill:#ffd300;"
		/>
	</g>
</svg>
